<svg width="100" height="24" viewBox="0 0 100 24" fill="none" xmlns="http://www.w3.org/2000/svg">
<path d="M62.2755 16.6595C62.7393 16.6595 63.1311 16.8159 63.45 17.1279C63.7687 17.4258 63.9277 17.8301 63.9277 18.3406C63.9277 18.8511 63.7687 19.2554 63.45 19.5533C63.1312 19.8511 62.7324 19.9999 62.2542 20C61.7904 20 61.3918 19.8511 61.0585 19.5533C60.7396 19.2554 60.5798 18.8512 60.5798 18.3406C60.5798 17.83 60.7464 17.4258 61.0797 17.1279C61.413 16.8159 61.8117 16.6595 62.2755 16.6595Z" fill="black"/>
<path fill-rule="evenodd" clip-rule="evenodd" d="M31.6175 9.93684C32.0377 9.41217 32.5743 9.02198 33.2263 8.76666C33.893 8.49716 34.5823 8.36149 35.2925 8.36149C36.4227 8.36154 37.3503 8.61703 38.0749 9.12744C38.8141 9.62388 39.358 10.3051 39.7059 11.1703C40.0682 12.0355 40.2492 13.0144 40.2492 14.1066C40.2492 15.1987 40.0605 16.1843 39.6837 17.0637C39.3213 17.9289 38.7639 18.6176 38.0102 19.1283C37.2565 19.6389 36.2919 19.8942 35.1178 19.8942C34.6977 19.8942 34.2776 19.8508 33.8574 19.7658C33.4371 19.6807 33.0308 19.5318 32.6395 19.319C32.2628 19.1063 31.915 18.8226 31.5962 18.4681L31.5306 19.745H28.9654V4.27106H31.5962L31.6175 9.93684ZM34.6614 10.7028C33.9948 10.7028 33.4294 10.8724 32.9657 11.2128C32.5164 11.539 32.1756 11.9716 31.9437 12.5105C31.7118 13.0353 31.5962 13.5818 31.5962 14.1491C31.5962 14.7449 31.6973 15.3054 31.9002 15.8302C32.1176 16.355 32.4517 16.78 32.901 17.1062C33.3648 17.4324 33.9589 17.5964 34.6835 17.5964C35.4227 17.5963 36.0023 17.4324 36.4226 17.1062C36.8573 16.7658 37.1694 16.3266 37.3578 15.7877C37.5462 15.2489 37.6405 14.6814 37.6406 14.0858C37.6406 13.4759 37.5385 12.9153 37.3356 12.4047C37.1472 11.8941 36.8361 11.4823 36.4014 11.1703C35.9666 10.8582 35.3861 10.7028 34.6614 10.7028Z" fill="black"/>
<path fill-rule="evenodd" clip-rule="evenodd" d="M52.8465 8.36149C54.006 8.36149 55.0064 8.60277 55.847 9.08494C56.6876 9.56719 57.3327 10.2484 57.782 11.1278C58.2313 11.993 58.4556 13.0144 58.4556 14.1916C58.4556 15.3405 58.2313 16.3477 57.782 17.2129C57.3472 18.0639 56.7097 18.7235 55.8692 19.1915C55.0285 19.6596 54.0206 19.8942 52.8465 19.8942C51.6726 19.8942 50.6577 19.6596 49.8026 19.1915C48.9622 18.7235 48.3101 18.0571 47.8464 17.1921C47.3971 16.3269 47.1718 15.3122 47.1718 14.1491C47.1718 12.972 47.404 11.958 47.8676 11.107C48.3315 10.2418 48.9842 9.56721 49.8248 9.08494C50.6654 8.60281 51.6727 8.36152 52.8465 8.36149ZM52.8253 10.7453C52.1006 10.7453 51.5133 10.9083 51.064 11.2345C50.6147 11.5466 50.2883 11.9649 50.0854 12.4897C49.8825 13.0003 49.7814 13.5609 49.7814 14.1708C49.7814 14.7663 49.8826 15.3264 50.0854 15.851C50.3028 16.3617 50.6292 16.7734 51.064 17.0854C51.5133 17.3833 52.1006 17.5321 52.8253 17.5321C53.5499 17.5321 54.1296 17.3757 54.5644 17.0637C55.0136 16.7517 55.3401 16.3408 55.543 15.8302C55.7459 15.3197 55.847 14.7664 55.847 14.1708C55.847 13.5751 55.7459 13.0145 55.543 12.4897C55.3401 11.9649 55.0136 11.5466 54.5644 11.2345C54.1296 10.9083 53.5499 10.7453 52.8253 10.7453Z" fill="black"/>
<path fill-rule="evenodd" clip-rule="evenodd" d="M69.1556 9.93684C69.5758 9.41217 70.1124 9.02198 70.7644 8.76666C71.4311 8.49716 72.1204 8.36149 72.8306 8.36149C73.9608 8.36154 74.8884 8.61703 75.613 9.12744C76.3522 9.62388 76.8961 10.3051 77.244 11.1703C77.6063 12.0355 77.7873 13.0144 77.7873 14.1066C77.7873 15.1987 77.5986 16.1843 77.2218 17.0637C76.8594 17.9289 76.302 18.6176 75.5483 19.1283C74.7946 19.6389 73.83 19.8942 72.656 19.8942C72.2358 19.8942 71.8157 19.8508 71.3955 19.7658C70.9752 19.6807 70.569 19.5318 70.1776 19.319C69.8009 19.1063 69.4531 18.8226 69.1343 18.4681L69.0687 19.745H66.5035V4.27106H69.1343L69.1556 9.93684ZM72.1995 10.7028C71.5329 10.7028 70.9675 10.8724 70.5038 11.2128C70.0546 11.539 69.7137 11.9716 69.4818 12.5105C69.2499 13.0353 69.1344 13.5818 69.1343 14.1491C69.1343 14.7449 69.2354 15.3054 69.4383 15.8302C69.6558 16.355 69.9898 16.78 70.4391 17.1062C70.903 17.4324 71.497 17.5964 72.2217 17.5964C72.9608 17.5963 73.5404 17.4324 73.9608 17.1062C74.3955 16.7658 74.7075 16.3266 74.8959 15.7877C75.0843 15.2489 75.1786 14.6814 75.1787 14.0858C75.1787 13.4759 75.0766 12.9153 74.8737 12.4047C74.6853 11.8941 74.3743 11.4823 73.9395 11.1703C73.5047 10.8582 72.9242 10.7028 72.1995 10.7028Z" fill="black"/>
<path fill-rule="evenodd" clip-rule="evenodd" d="M84.8576 8.36149C86.5242 8.36152 87.7345 8.82989 88.4882 9.76589C89.2564 10.7021 89.6406 12.0144 89.6406 13.7024V19.745H87.2925L87.2269 18.2981C86.8935 18.7803 86.4949 19.1346 86.0311 19.3615C85.5675 19.5884 85.1185 19.7307 84.6839 19.7875C84.2492 19.8584 83.8793 19.8942 83.575 19.8942C83.0387 19.8942 82.5313 19.8226 82.053 19.6808C81.5748 19.539 81.1472 19.3335 80.7704 19.064C80.3936 18.7804 80.0884 18.4327 79.8565 18.0214C79.6392 17.5959 79.5303 17.0992 79.5303 16.532C79.5303 15.8087 79.6757 15.2197 79.9655 14.7658C80.2554 14.2979 80.6473 13.9435 81.1401 13.7024C81.6472 13.4614 82.2195 13.2982 82.8569 13.2132C83.4947 13.1139 84.1619 13.0639 84.8576 13.0639H87.0966C87.0966 12.5675 87.0167 12.1416 86.8572 11.787C86.6978 11.4185 86.4444 11.128 86.0968 10.9153C85.7634 10.7025 85.3282 10.5961 84.792 10.5961C84.4444 10.5961 84.1185 10.6386 83.8143 10.7236C83.5244 10.7945 83.2703 10.9151 83.0529 11.0853C82.85 11.2413 82.7046 11.4468 82.6176 11.702H79.8999C80.0014 11.1206 80.2046 10.6239 80.5089 10.2126C80.8277 9.78727 81.2121 9.44033 81.6612 9.17089C82.125 8.90142 82.6325 8.7026 83.1832 8.57494C83.7339 8.43309 84.2923 8.36149 84.8576 8.36149ZM85.0313 14.8943C84.6835 14.8943 84.3358 14.9084 83.988 14.9368C83.6548 14.951 83.3504 15.0076 83.0751 15.1068C82.7997 15.1919 82.5744 15.3266 82.4005 15.511C82.2412 15.6953 82.1612 15.9576 82.1611 16.2977C82.1611 16.6382 82.2487 16.9151 82.4227 17.1279C82.611 17.3406 82.85 17.5037 83.1397 17.6171C83.444 17.7306 83.7629 17.7871 84.0961 17.7871C84.6759 17.7871 85.1909 17.6807 85.6403 17.4679C86.0895 17.2552 86.4449 16.9574 86.7057 16.5745C86.9809 16.1917 87.1187 15.7522 87.1188 15.256V14.8943H85.0313Z" fill="black"/>
<path d="M21.6819 9.42872C23.3585 9.42872 24.718 10.7486 24.718 12.3764V16.7974C24.718 18.4252 23.3586 19.745 21.6819 19.745H17.1286C16.266 19.745 15.4876 19.3954 14.9349 18.8345C14.1702 18.0585 13.2858 17.1657 12.1796 17.1657C11.3968 17.1657 10.698 17.5961 10.1577 18.146C9.19021 19.1309 7.8254 19.745 6.31282 19.745C3.37873 19.745 1.00018 17.4359 1 14.5873C1 11.7387 3.37863 9.42874 6.31282 9.42872C7.82538 9.42872 9.19021 10.0428 10.1577 11.0277C10.698 11.5777 11.3968 12.008 12.1796 12.008C13.2858 12.008 14.1702 11.1152 14.9349 10.3392C15.4875 9.77845 16.2661 9.42872 17.1286 9.42872H21.6819Z" fill="black"/>
<path d="M45.0361 19.745H42.384V8.53244H45.0361V19.745Z" fill="black"/>
<path d="M98.6516 8.36149C98.7965 8.36149 98.913 8.36903 99 8.38321V10.8511H98.3042C97.5505 10.8511 96.9122 10.9933 96.3904 11.277C95.8688 11.5607 95.4777 11.965 95.2169 12.4897C94.956 13.0145 94.825 13.6599 94.825 14.4258V19.745H92.173V8.53244H94.5866L94.7382 10.0001C95.028 9.57463 95.3544 9.24861 95.7168 9.02166C96.0936 8.78054 96.4922 8.61001 96.9125 8.51071C97.3473 8.41142 97.7825 8.36149 98.2173 8.36149H98.6516Z" fill="black"/>
<path d="M22.1885 4.27106C23.5856 4.27128 24.718 5.37124 24.718 6.72758C24.7178 7.40565 24.1513 7.95537 23.4528 7.95537H2.16776C1.52302 7.95537 1.00023 7.44793 1 6.82203C1.00005 5.41347 2.17614 4.27119 3.62697 4.27106H22.1885Z" fill="black"/>
<path d="M43.71 4C44.1737 4 44.5725 4.14903 44.9058 4.44673C45.2391 4.74453 45.4056 5.1348 45.4057 5.61691C45.4057 6.09902 45.2466 6.48925 44.928 6.78708C44.6091 7.08496 44.2028 7.23476 43.71 7.23476C43.2028 7.23472 42.7974 7.08492 42.4931 6.78708C42.1887 6.48921 42.0366 6.09916 42.0366 5.61691C42.0366 5.14905 42.1956 4.76623 42.5143 4.46845C42.8331 4.15644 43.2318 4.00004 43.71 4Z" fill="black"/>
</svg>
