<svg width="48" height="48" viewBox="0 0 48 48" fill="none" xmlns="http://www.w3.org/2000/svg">
<path d="M16.5 3H7.5C5.01472 3 3 5.01472 3 7.5V16.5C3 18.9853 5.01472 21 7.5 21H16.5C18.9853 21 21 18.9853 21 16.5V7.5C21 5.01472 18.9853 3 16.5 3Z" fill="#0A0A0A"/>
<path d="M39.183 2.45381C38.7651 2.03564 38.2689 1.70391 37.7227 1.47758C37.1766 1.25126 36.5912 1.13477 36 1.13477C35.4088 1.13477 34.8234 1.25126 34.2773 1.47758C33.7311 1.70391 33.2349 2.03564 32.817 2.45381L26.451 8.81681C26.0328 9.23471 25.7011 9.73091 25.4748 10.2771C25.2485 10.8232 25.132 11.4086 25.132 11.9998C25.132 12.591 25.2485 13.1764 25.4748 13.7225C25.7011 14.2687 26.0328 14.7649 26.451 15.1828L32.814 21.5458C33.2319 21.964 33.7281 22.2957 34.2743 22.522C34.8204 22.7484 35.4058 22.8648 35.997 22.8648C36.5882 22.8648 37.1736 22.7484 37.7197 22.522C38.2659 22.2957 38.7621 21.964 39.18 21.5458L45.546 15.1828C45.9642 14.7649 46.2959 14.2687 46.5222 13.7225C46.7485 13.1764 46.865 12.591 46.865 11.9998C46.865 11.4086 46.7485 10.8232 46.5222 10.2771C46.2959 9.73091 45.9642 9.23471 45.546 8.81681L39.183 2.45381Z" fill="#0A0A0A"/>
<path d="M16.5 27H7.5C5.01472 27 3 29.0147 3 31.5V40.5C3 42.9853 5.01472 45 7.5 45H16.5C18.9853 45 21 42.9853 21 40.5V31.5C21 29.0147 18.9853 27 16.5 27Z" fill="#0A0A0A"/>
<path d="M40.5 27H31.5C29.0147 27 27 29.0147 27 31.5V40.5C27 42.9853 29.0147 45 31.5 45H40.5C42.9853 45 45 42.9853 45 40.5V31.5C45 29.0147 42.9853 27 40.5 27Z" fill="#0A0A0A"/>
</svg>
