<svg width="48" height="48" viewBox="0 0 48 48" fill="none" xmlns="http://www.w3.org/2000/svg">
<path d="M16.5 3H7.5C5.01472 3 3 5.01472 3 7.5V16.5C3 18.9853 5.01472 21 7.5 21H16.5C18.9853 21 21 18.9853 21 16.5V7.5C21 5.01472 18.9853 3 16.5 3Z" fill="#FAFAFA"/>
<path d="M39.183 2.45405C38.7651 2.03588 38.2689 1.70415 37.7227 1.47783C37.1766 1.2515 36.5912 1.13501 36 1.13501C35.4088 1.13501 34.8234 1.2515 34.2773 1.47783C33.7311 1.70415 33.2349 2.03588 32.817 2.45405L26.451 8.81705C26.0328 9.23495 25.7011 9.73116 25.4748 10.2773C25.2485 10.8235 25.132 11.4089 25.132 12C25.132 12.5912 25.2485 13.1766 25.4748 13.7228C25.7011 14.2689 26.0328 14.7651 26.451 15.183L32.814 21.5461C33.2319 21.9642 33.7281 22.2959 34.2743 22.5223C34.8204 22.7486 35.4058 22.8651 35.997 22.8651C36.5882 22.8651 37.1736 22.7486 37.7197 22.5223C38.2659 22.2959 38.7621 21.9642 39.18 21.5461L45.546 15.183C45.9642 14.7651 46.2959 14.2689 46.5222 13.7228C46.7486 13.1766 46.865 12.5912 46.865 12C46.865 11.4089 46.7486 10.8235 46.5222 10.2773C46.2959 9.73116 45.9642 9.23495 45.546 8.81705L39.183 2.45405Z" fill="#FAFAFA"/>
<path d="M16.5 27H7.5C5.01472 27 3 29.0147 3 31.5V40.5C3 42.9853 5.01472 45 7.5 45H16.5C18.9853 45 21 42.9853 21 40.5V31.5C21 29.0147 18.9853 27 16.5 27Z" fill="#FAFAFA"/>
<path d="M40.5 27H31.5C29.0147 27 27 29.0147 27 31.5V40.5C27 42.9853 29.0147 45 31.5 45H40.5C42.9853 45 45 42.9853 45 40.5V31.5C45 29.0147 42.9853 27 40.5 27Z" fill="#FAFAFA"/>
</svg>
