<svg width="48" height="48" viewBox="0 0 48 48" fill="none" xmlns="http://www.w3.org/2000/svg">
<path d="M24 0C18.4305 0 13.089 2.21249 9.15076 6.15076C5.21249 10.089 3 15.4305 3 21C3 36 24 48 24 48C24 48 45 36 45 21C45 15.4305 42.7875 10.089 38.8492 6.15076C34.911 2.21249 29.5695 0 24 0ZM32.823 21.66L24 30.378L15.177 21.66L15.114 21.6C14.5969 21.0747 14.1883 20.4526 13.9116 19.7694C13.635 19.0861 13.4956 18.3551 13.5014 17.618C13.5073 16.8808 13.6582 16.1521 13.9457 15.4733C14.2332 14.7946 14.6516 14.1791 15.177 13.662C15.4268 13.4165 15.6979 13.1937 15.987 12.996C16.6142 12.5708 17.3189 12.2734 18.0611 12.1206C18.8032 11.9679 19.5682 11.9628 20.3123 12.1057C21.0564 12.2486 21.765 12.5367 22.3978 12.9535C23.0305 13.3704 23.575 13.9077 24 14.535C24.1956 14.247 24.4165 13.9769 24.66 13.728C25.1914 13.1874 25.8242 12.7569 26.522 12.4608C27.2199 12.1648 27.9692 12.0092 28.7272 12.0028C29.4852 11.9963 30.2371 12.1393 30.9398 12.4235C31.6426 12.7077 32.2825 13.1275 32.823 13.659L32.886 13.722C33.4031 14.2473 33.8117 14.8694 34.0884 15.5526C34.365 16.2359 34.5044 16.9669 34.4986 17.704C34.4927 18.4412 34.3418 19.1699 34.0543 19.8487C33.7668 20.5274 33.3484 21.1429 32.823 21.66Z" fill="#0A0A0A"/>
</svg>
